# Blender v3.3.1 OBJ File: ''
# www.blender.org
mtllib arrow.mtl
o Cube_Cube.005
v -0.500000 0.000000 -0.497954
v 0.500000 -0.000000 -0.497954
v 0.500000 0.145000 0.500000
v -0.500000 0.145000 0.500000
v -0.500000 0.392954 -0.105000
v -0.500000 0.145000 -0.105000
v 0.500000 0.145000 -0.105000
v 0.500000 0.392954 -0.105000
v 0.500000 -0.145000 0.500000
v -0.500000 -0.145000 0.500000
v -0.500000 -0.392954 -0.105000
v -0.500000 -0.145000 -0.105000
v 0.500000 -0.392954 -0.105000
v 0.500000 -0.145000 -0.105000
vt 0.625000 0.088750
vt 0.625000 0.161250
vt 0.375000 0.161250
vt 0.375000 0.088750
vt 0.125000 0.588750
vt 0.276250 0.588750
vt 0.276250 0.526761
vt 0.374489 0.625000
vt 0.276250 0.723239
vt 0.276250 0.661250
vt 0.125000 0.661250
vt 0.723750 0.723239
vt 0.625511 0.625000
vt 0.723750 0.526761
vt 0.723750 0.588750
vt 0.875000 0.588750
vt 0.875000 0.661250
vt 0.723750 0.661250
vt 0.552947 0.001019
vt 0.447053 0.001019
vt 0.447053 0.196695
vt 0.552947 0.196695
vt 0.447053 0.498981
vt 0.552947 0.498981
vt 0.552947 0.303305
vt 0.447053 0.303305
vt 0.447053 0.662692
vt 0.447053 0.750000
vt 0.552947 0.750000
vt 0.552947 0.662692
vt 0.552947 0.963028
vt 0.447053 0.963028
vt 0.552947 0.286972
vt 0.447053 0.286972
vt 0.447053 0.500000
vt 0.552947 0.500000
vt 0.552947 0.587308
vt 0.447053 0.587308
vn 0.0000 0.0000 1.0000
vn -1.0000 0.0000 0.0000
vn 1.0000 0.0000 -0.0000
vn 0.0000 0.7071 -0.7071
vn -0.0000 -0.7071 -0.7071
vn 0.0000 1.0000 0.0000
vn -0.0000 -1.0000 -0.0000
usemtl (null)
s off
f 9/1/1 3/2/1 4/3/1 10/4/1
f 4/5/2 6/6/2 5/7/2 1/8/2 11/9/2 12/10/2 10/11/2
f 13/12/3 2/13/3 8/14/3 7/15/3 3/16/3 9/17/3 14/18/3
f 2/19/4 1/20/4 5/21/4 8/22/4
f 1/23/5 2/24/5 13/25/5 11/26/5
f 5/27/1 6/28/1 7/29/1 8/30/1
f 3/31/6 7/29/6 6/28/6 4/32/6
f 9/33/7 10/34/7 12/35/7 14/36/7
f 13/37/1 14/36/1 12/35/1 11/38/1
o Cube.005_Cube.010
v -1.210000 -2.360859 1.710000
v -1.210000 2.360859 1.710000
v -1.210000 -2.360859 0.290000
v -1.210000 2.360859 0.290000
v 0.210000 -2.360859 1.710000
v 0.210000 2.360859 1.710000
v 0.210000 -2.360859 0.290000
v 0.210000 2.360859 0.290000
vt 0.375000 0.000000
vt 0.625000 0.000000
vt 0.625000 0.250000
vt 0.375000 0.250000
vt 0.625000 0.500000
vt 0.375000 0.500000
vt 0.625000 0.750000
vt 0.375000 0.750000
vt 0.625000 1.000000
vt 0.375000 1.000000
vt 0.125000 0.500000
vt 0.125000 0.750000
vt 0.875000 0.500000
vt 0.875000 0.750000
vn -1.0000 0.0000 0.0000
vn 0.0000 0.0000 -1.0000
vn 1.0000 0.0000 0.0000
vn 0.0000 0.0000 1.0000
vn 0.0000 -1.0000 0.0000
vn 0.0000 1.0000 0.0000
usemtl None
s off
f 15/39/8 16/40/8 18/41/8 17/42/8
f 17/42/9 18/41/9 22/43/9 21/44/9
f 21/44/10 22/43/10 20/45/10 19/46/10
f 19/46/11 20/45/11 16/47/11 15/48/11
f 17/49/12 21/44/12 19/46/12 15/50/12
f 22/43/13 18/51/13 16/52/13 20/45/13
o Cube.006_Cube.011
v -1.210000 -2.360859 -0.290000
v -1.210000 2.360859 -0.290000
v -1.210000 -2.360859 -1.710000
v -1.210000 2.360859 -1.710000
v 0.210000 -2.360859 -0.290000
v 0.210000 2.360859 -0.290000
v 0.210000 -2.360859 -1.710000
v 0.210000 2.360859 -1.710000
vt 0.375000 0.000000
vt 0.625000 0.000000
vt 0.625000 0.250000
vt 0.375000 0.250000
vt 0.625000 0.500000
vt 0.375000 0.500000
vt 0.625000 0.750000
vt 0.375000 0.750000
vt 0.625000 1.000000
vt 0.375000 1.000000
vt 0.125000 0.500000
vt 0.125000 0.750000
vt 0.875000 0.500000
vt 0.875000 0.750000
vn -1.0000 0.0000 0.0000
vn 0.0000 0.0000 -1.0000
vn 1.0000 0.0000 0.0000
vn 0.0000 0.0000 1.0000
vn 0.0000 -1.0000 0.0000
vn 0.0000 1.0000 0.0000
usemtl None
s off
f 23/53/14 24/54/14 26/55/14 25/56/14
f 25/56/15 26/55/15 30/57/15 29/58/15
f 29/58/16 30/57/16 28/59/16 27/60/16
f 27/60/17 28/59/17 24/61/17 23/62/17
f 25/63/18 29/58/18 27/60/18 23/64/18
f 30/57/19 26/65/19 24/66/19 28/59/19
o Cube.007_Cube.012
v 1.000000 -2.360859 2.004092
v 1.000000 2.360859 2.004092
v -0.004092 -2.360859 1.000000
v -0.004092 2.360859 1.000000
v 2.004092 -2.360859 1.000000
v 2.004092 2.360859 1.000000
v 1.000000 -2.360859 -0.004092
v 1.000000 2.360859 -0.004092
vt 0.375000 0.000000
vt 0.625000 0.000000
vt 0.625000 0.250000
vt 0.375000 0.250000
vt 0.625000 0.500000
vt 0.375000 0.500000
vt 0.625000 0.750000
vt 0.375000 0.750000
vt 0.625000 1.000000
vt 0.375000 1.000000
vt 0.125000 0.500000
vt 0.125000 0.750000
vt 0.875000 0.500000
vt 0.875000 0.750000
vn -0.7071 0.0000 0.7071
vn -0.7071 0.0000 -0.7071
vn 0.7071 0.0000 -0.7071
vn 0.7071 0.0000 0.7071
vn 0.0000 -1.0000 0.0000
vn 0.0000 1.0000 0.0000
usemtl None
s off
f 31/67/20 32/68/20 34/69/20 33/70/20
f 33/70/21 34/69/21 38/71/21 37/72/21
f 37/72/22 38/71/22 36/73/22 35/74/22
f 35/74/23 36/73/23 32/75/23 31/76/23
f 33/77/24 37/72/24 35/74/24 31/78/24
f 38/71/25 34/79/25 32/80/25 36/73/25
o Cube.008_Cube.013
v 1.000000 -2.360859 0.004092
v 1.000000 2.360859 0.004092
v -0.004092 -2.360859 -1.000000
v -0.004092 2.360859 -1.000000
v 2.004092 -2.360859 -1.000000
v 2.004092 2.360859 -1.000000
v 1.000000 -2.360859 -2.004092
v 1.000000 2.360859 -2.004092
vt 0.375000 0.000000
vt 0.625000 0.000000
vt 0.625000 0.250000
vt 0.375000 0.250000
vt 0.625000 0.500000
vt 0.375000 0.500000
vt 0.625000 0.750000
vt 0.375000 0.750000
vt 0.625000 1.000000
vt 0.375000 1.000000
vt 0.125000 0.500000
vt 0.125000 0.750000
vt 0.875000 0.500000
vt 0.875000 0.750000
vn -0.7071 0.0000 0.7071
vn -0.7071 0.0000 -0.7071
vn 0.7071 0.0000 -0.7071
vn 0.7071 0.0000 0.7071
vn 0.0000 -1.0000 0.0000
vn 0.0000 1.0000 0.0000
usemtl None
s off
f 39/81/26 40/82/26 42/83/26 41/84/26
f 41/84/27 42/83/27 46/85/27 45/86/27
f 45/86/28 46/85/28 44/87/28 43/88/28
f 43/88/29 44/87/29 40/89/29 39/90/29
f 41/91/30 45/86/30 43/88/30 39/92/30
f 46/85/31 42/93/31 40/94/31 44/87/31
o Cube.009_Cube.014
v -1.000000 -1.000000 1.000000
v -1.000000 1.000000 1.000000
v -1.000000 -1.000000 -1.000000
v -1.000000 1.000000 -1.000000
v 1.000000 -1.000000 1.000000
v 1.000000 1.000000 1.000000
v -0.004092 1.000000 -1.000000
v -0.004092 -1.000000 -1.000000
v 1.000000 1.000000 0.004092
v 1.000000 -1.000000 0.004092
vt 0.375000 0.000000
vt 0.625000 0.000000
vt 0.625000 0.250000
vt 0.375000 0.250000
vt 0.625000 0.374489
vt 0.375000 0.374489
vt 0.625000 0.750000
vt 0.375000 0.750000
vt 0.375000 0.625511
vt 0.625000 0.625511
vt 0.625000 1.000000
vt 0.375000 1.000000
vt 0.125000 0.750000
vt 0.125000 0.500000
vt 0.249489 0.500000
vt 0.750511 0.500000
vt 0.875000 0.500000
vt 0.875000 0.750000
vt 0.447053 0.000000
vt 0.447053 0.250000
vt 0.552947 0.250000
vt 0.552947 0.000000
vn -1.0000 0.0000 0.0000
vn 0.0000 0.0000 -1.0000
vn 1.0000 0.0000 0.0000
vn 0.0000 0.0000 1.0000
vn 0.0000 -1.0000 0.0000
vn 0.0000 1.0000 0.0000
vn 0.7071 0.0000 -0.7071
usemtl (null)
s off
f 47/95/32 48/96/32 50/97/32 49/98/32
f 49/98/33 50/97/33 53/99/33 54/100/33
f 52/101/34 51/102/34 56/103/34 55/104/34
f 51/102/35 52/101/35 48/105/35 47/106/35
f 51/102/36 47/107/36 49/108/36 54/109/36 56/103/36
f 53/110/37 50/111/37 48/112/37 52/101/37 55/104/37
f 56/113/38 54/114/38 53/115/38 55/116/38
