# Blender v3.3.1 OBJ File: ''
# www.blender.org
mtllib hollowcircle.mtl
o Cylinder_Cylinder.001
v -0.500000 -0.000000 -0.500000
v 0.500000 0.000000 -0.500000
v -0.500000 -0.097545 -0.490393
v 0.500000 -0.097545 -0.490393
v -0.500000 -0.191342 -0.461940
v 0.500000 -0.191342 -0.461940
v -0.500000 -0.277785 -0.415735
v 0.500000 -0.277785 -0.415735
v -0.500000 -0.353553 -0.353553
v 0.500000 -0.353553 -0.353553
v -0.500000 -0.415735 -0.277785
v 0.500000 -0.415735 -0.277785
v -0.500000 -0.461940 -0.191342
v 0.500000 -0.461940 -0.191342
v -0.500000 -0.490393 -0.097545
v 0.500000 -0.490393 -0.097545
v -0.500000 -0.500000 0.000000
v 0.500000 -0.500000 0.000000
v -0.500000 -0.490393 0.097545
v 0.500000 -0.490393 0.097545
v -0.500000 -0.461940 0.191342
v 0.500000 -0.461940 0.191342
v -0.500000 -0.415735 0.277785
v 0.500000 -0.415735 0.277785
v -0.500000 -0.353553 0.353553
v 0.500000 -0.353553 0.353553
v -0.500000 -0.277785 0.415735
v 0.500000 -0.277785 0.415735
v -0.500000 -0.191342 0.461940
v 0.500000 -0.191342 0.461940
v -0.500000 -0.097545 0.490393
v 0.500000 -0.097545 0.490393
v -0.500000 -0.000000 0.500000
v 0.500000 0.000000 0.500000
v -0.500000 0.097545 0.490393
v 0.500000 0.097545 0.490393
v -0.500000 0.191342 0.461940
v 0.500000 0.191342 0.461940
v -0.500000 0.277785 0.415735
v 0.500000 0.277785 0.415735
v -0.500000 0.353553 0.353553
v 0.500000 0.353553 0.353553
v -0.500000 0.415735 0.277785
v 0.500000 0.415735 0.277785
v -0.500000 0.461940 0.191342
v 0.500000 0.461940 0.191342
v -0.500000 0.490393 0.097545
v 0.500000 0.490393 0.097545
v -0.500000 0.500000 0.000000
v 0.500000 0.500000 0.000000
v -0.500000 0.490393 -0.097545
v 0.500000 0.490393 -0.097545
v -0.500000 0.461940 -0.191342
v 0.500000 0.461940 -0.191342
v -0.500000 0.415735 -0.277785
v 0.500000 0.415735 -0.277785
v -0.500000 0.353553 -0.353553
v 0.500000 0.353553 -0.353553
v -0.500000 0.277785 -0.415735
v 0.500000 0.277785 -0.415735
v -0.500000 0.191342 -0.461940
v 0.500000 0.191342 -0.461940
v -0.500000 0.097545 -0.490393
v 0.500000 0.097545 -0.490393
v 0.500000 -0.207867 0.138893
v -0.500000 -0.207867 0.138893
v 0.500000 -0.230970 0.095671
v -0.500000 -0.230970 0.095671
v 0.500000 -0.230970 -0.095671
v -0.500000 -0.230970 -0.095671
v 0.500000 -0.207867 -0.138893
v -0.500000 -0.207867 -0.138893
v 0.500000 -0.250000 0.000000
v -0.500000 -0.250000 0.000000
v 0.500000 -0.176777 0.176777
v -0.500000 -0.176777 0.176777
v 0.500000 -0.245196 -0.048773
v -0.500000 -0.245196 -0.048773
v 0.500000 -0.245196 0.048773
v -0.500000 -0.245196 0.048773
v 0.500000 -0.138893 -0.207867
v -0.500000 -0.138893 -0.207867
v 0.500000 0.095671 0.230970
v -0.500000 0.095671 0.230970
v 0.500000 -0.176777 -0.176777
v -0.500000 -0.176777 -0.176777
v 0.500000 0.000000 -0.250000
v -0.500000 -0.000000 -0.250000
v 0.500000 -0.048773 -0.245196
v -0.500000 -0.048773 -0.245196
v 0.500000 0.095671 -0.230970
v -0.500000 0.095671 -0.230970
v 0.500000 0.138893 0.207867
v -0.500000 0.138893 0.207867
v -0.500000 -0.000000 0.250000
v 0.500000 0.000000 0.250000
v -0.500000 -0.048773 0.245196
v 0.500000 -0.048773 0.245196
v -0.500000 0.048773 0.245196
v 0.500000 0.048773 0.245196
v 0.500000 -0.095671 -0.230970
v -0.500000 -0.095671 -0.230970
v 0.500000 -0.138893 0.207867
v -0.500000 -0.138893 0.207867
v 0.500000 -0.095671 0.230970
v -0.500000 -0.095671 0.230970
v 0.500000 0.048773 -0.245196
v -0.500000 0.048773 -0.245196
v 0.500000 0.245196 -0.048773
v -0.500000 0.245196 -0.048773
v 0.500000 0.245196 0.048773
v -0.500000 0.245196 0.048773
v 0.500000 0.250000 0.000000
v -0.500000 0.250000 0.000000
v 0.500000 0.230970 -0.095671
v -0.500000 0.230970 -0.095671
v 0.500000 0.138893 -0.207867
v -0.500000 0.138893 -0.207867
v 0.500000 0.230970 0.095671
v -0.500000 0.230970 0.095671
v 0.500000 0.207867 0.138893
v -0.500000 0.207867 0.138893
v 0.500000 0.176777 0.176777
v -0.500000 0.176777 0.176777
v 0.500000 0.176777 -0.176777
v -0.500000 0.176777 -0.176777
v 0.500000 0.207867 -0.138893
v -0.500000 0.207867 -0.138893
vt 1.000000 0.500000
vt 1.000000 1.000000
vt 0.968750 1.000000
vt 0.968750 0.500000
vt 0.937500 1.000000
vt 0.937500 0.500000
vt 0.906250 1.000000
vt 0.906250 0.500000
vt 0.875000 1.000000
vt 0.875000 0.500000
vt 0.843750 1.000000
vt 0.843750 0.500000
vt 0.812500 1.000000
vt 0.812500 0.500000
vt 0.781250 1.000000
vt 0.781250 0.500000
vt 0.750000 1.000000
vt 0.750000 0.500000
vt 0.718750 1.000000
vt 0.718750 0.500000
vt 0.687500 1.000000
vt 0.687500 0.500000
vt 0.656250 1.000000
vt 0.656250 0.500000
vt 0.625000 1.000000
vt 0.625000 0.500000
vt 0.593750 1.000000
vt 0.593750 0.500000
vt 0.562500 1.000000
vt 0.562500 0.500000
vt 0.531250 1.000000
vt 0.531250 0.500000
vt 0.500000 1.000000
vt 0.500000 0.500000
vt 0.468750 1.000000
vt 0.468750 0.500000
vt 0.437500 1.000000
vt 0.437500 0.500000
vt 0.406250 1.000000
vt 0.406250 0.500000
vt 0.375000 1.000000
vt 0.375000 0.500000
vt 0.343750 1.000000
vt 0.343750 0.500000
vt 0.312500 1.000000
vt 0.312500 0.500000
vt 0.281250 1.000000
vt 0.281250 0.500000
vt 0.250000 1.000000
vt 0.250000 0.500000
vt 0.218750 1.000000
vt 0.218750 0.500000
vt 0.187500 1.000000
vt 0.187500 0.500000
vt 0.156250 1.000000
vt 0.156250 0.500000
vt 0.125000 1.000000
vt 0.125000 0.500000
vt 0.093750 1.000000
vt 0.093750 0.500000
vt 0.062500 1.000000
vt 0.062500 0.500000
vt 0.296822 0.485388
vt 0.250000 0.490000
vt 0.250000 0.370000
vt 0.273411 0.367694
vt 0.295922 0.360866
vt 0.316668 0.349776
vt 0.334853 0.334853
vt 0.349776 0.316668
vt 0.360866 0.295922
vt 0.367694 0.273411
vt 0.370000 0.250000
vt 0.367694 0.226589
vt 0.360866 0.204078
vt 0.349776 0.183332
vt 0.334853 0.165147
vt 0.316668 0.150224
vt 0.295922 0.139134
vt 0.273411 0.132306
vt 0.250000 0.130000
vt 0.250000 0.010000
vt 0.296822 0.014612
vt 0.341844 0.028269
vt 0.383337 0.050447
vt 0.419706 0.080294
vt 0.449553 0.116663
vt 0.471731 0.158156
vt 0.485388 0.203178
vt 0.490000 0.250000
vt 0.485388 0.296822
vt 0.471731 0.341844
vt 0.449553 0.383337
vt 0.419706 0.419706
vt 0.383337 0.449553
vt 0.341844 0.471731
vt 0.031250 1.000000
vt 0.031250 0.500000
vt 0.000000 1.000000
vt 0.000000 0.500000
vt 0.750000 0.490000
vt 0.750000 0.370000
vt 0.726589 0.367694
vt 0.704078 0.360866
vt 0.683332 0.349776
vt 0.665147 0.334853
vt 0.650224 0.316668
vt 0.639134 0.295922
vt 0.632306 0.273411
vt 0.630000 0.250000
vt 0.632306 0.226589
vt 0.639134 0.204078
vt 0.650224 0.183332
vt 0.665147 0.165147
vt 0.683332 0.150224
vt 0.704078 0.139134
vt 0.726589 0.132306
vt 0.750000 0.130000
vt 0.750000 0.010000
vt 0.703178 0.014612
vt 0.658156 0.028269
vt 0.616663 0.050447
vt 0.580294 0.080294
vt 0.550447 0.116663
vt 0.528269 0.158156
vt 0.514612 0.203178
vt 0.510000 0.250000
vt 0.514612 0.296822
vt 0.528269 0.341844
vt 0.550447 0.383337
vt 0.580294 0.419706
vt 0.616663 0.449553
vt 0.658156 0.471731
vt 0.703178 0.485388
vt 0.718750 0.631618
vt 0.718750 0.868382
vt 0.750000 0.868382
vt 0.750000 0.631618
vt 0.625000 0.631618
vt 0.625000 0.868382
vt 0.656250 0.868382
vt 0.656250 0.631618
vt 0.687500 0.868382
vt 0.687500 0.631618
vt 0.218750 0.631618
vt 0.218750 0.868382
vt 0.250000 0.868382
vt 0.250000 0.631618
vt 0.781250 0.631618
vt 0.781250 0.868382
vt 0.812500 0.868382
vt 0.812500 0.631618
vt 0.843750 0.631618
vt 0.843750 0.868382
vt 0.875000 0.868382
vt 0.875000 0.631618
vt 0.000000 0.631618
vt 0.000000 0.868382
vt 0.031250 0.868382
vt 0.031250 0.631618
vt 0.468750 0.631618
vt 0.468750 0.868382
vt 0.500000 0.868382
vt 0.500000 0.631618
vt 0.156250 0.631618
vt 0.156250 0.868382
vt 0.187500 0.868382
vt 0.187500 0.631618
vt 0.531250 0.868382
vt 0.531250 0.631618
vt 0.062500 0.868382
vt 0.062500 0.631618
vt 0.906250 0.868382
vt 0.906250 0.631618
vt 0.406250 0.631618
vt 0.406250 0.868382
vt 0.437500 0.868382
vt 0.437500 0.631618
vt 0.226589 0.132306
vt 0.204078 0.139134
vt 0.183332 0.150224
vt 0.165147 0.165147
vt 0.150224 0.183332
vt 0.139134 0.204078
vt 0.132306 0.226589
vt 0.130000 0.250000
vt 0.132306 0.273411
vt 0.139134 0.295922
vt 0.150224 0.316668
vt 0.165147 0.334853
vt 0.183332 0.349776
vt 0.204078 0.360866
vt 0.226589 0.367694
vt 0.203178 0.485388
vt 0.158156 0.471731
vt 0.116663 0.449553
vt 0.080294 0.419706
vt 0.050447 0.383337
vt 0.028269 0.341844
vt 0.014612 0.296822
vt 0.010000 0.250000
vt 0.014612 0.203178
vt 0.028269 0.158156
vt 0.050447 0.116663
vt 0.080294 0.080294
vt 0.116663 0.050447
vt 0.158156 0.028269
vt 0.203178 0.014612
vt 0.937500 0.868382
vt 0.937500 0.631618
vt 0.593750 0.631618
vt 0.593750 0.868382
vt 0.093750 0.631618
vt 0.093750 0.868382
vt 0.125000 0.868382
vt 0.125000 0.631618
vt 0.375000 0.631618
vt 0.375000 0.868382
vt 0.562500 0.631618
vt 0.562500 0.868382
vt 0.312500 0.631618
vt 0.312500 0.868382
vt 0.343750 0.868382
vt 0.343750 0.631618
vt 0.968750 0.631618
vt 0.968750 0.868382
vt 1.000000 0.868382
vt 1.000000 0.631618
vt 0.281250 0.868382
vt 0.281250 0.631618
vt 0.773411 0.132306
vt 0.795922 0.139134
vt 0.816668 0.150224
vt 0.834853 0.165147
vt 0.849776 0.183332
vt 0.860866 0.204078
vt 0.867694 0.226589
vt 0.870000 0.250000
vt 0.867694 0.273411
vt 0.860865 0.295922
vt 0.849776 0.316668
vt 0.834853 0.334853
vt 0.816669 0.349776
vt 0.795922 0.360866
vt 0.773411 0.367694
vt 0.796822 0.485388
vt 0.841844 0.471731
vt 0.883337 0.449553
vt 0.919706 0.419706
vt 0.949553 0.383337
vt 0.971731 0.341844
vt 0.985388 0.296822
vt 0.990000 0.250000
vt 0.985388 0.203178
vt 0.971731 0.158156
vt 0.949553 0.116663
vt 0.919706 0.080294
vt 0.883337 0.050447
vt 0.841844 0.028269
vt 0.796822 0.014612
vn 0.0000 -0.0980 -0.9952
vn 0.0000 -0.2903 -0.9569
vn 0.0000 -0.4714 -0.8819
vn 0.0000 -0.6344 -0.7730
vn 0.0000 -0.7730 -0.6344
vn 0.0000 -0.8819 -0.4714
vn 0.0000 -0.9569 -0.2903
vn 0.0000 -0.9952 -0.0980
vn 0.0000 -0.9952 0.0980
vn 0.0000 -0.9569 0.2903
vn 0.0000 -0.8819 0.4714
vn 0.0000 -0.7730 0.6344
vn 0.0000 -0.6344 0.7730
vn 0.0000 -0.4714 0.8819
vn 0.0000 -0.2903 0.9569
vn 0.0000 -0.0980 0.9952
vn -0.0000 0.0980 0.9952
vn -0.0000 0.2903 0.9569
vn -0.0000 0.4714 0.8819
vn -0.0000 0.6344 0.7730
vn -0.0000 0.7730 0.6344
vn -0.0000 0.8819 0.4714
vn -0.0000 0.9569 0.2903
vn -0.0000 0.9952 0.0980
vn -0.0000 0.9952 -0.0980
vn -0.0000 0.9569 -0.2903
vn -0.0000 0.8819 -0.4714
vn -0.0000 0.7730 -0.6344
vn -0.0000 0.6344 -0.7730
vn -0.0000 0.4714 -0.8819
vn 1.0000 0.0000 -0.0000
vn -0.0000 0.2903 -0.9569
vn -0.0000 0.0980 -0.9952
vn -1.0000 -0.0000 -0.0000
usemtl None
s off
f 1/1/1 2/2/1 4/3/1 3/4/1
f 3/4/2 4/3/2 6/5/2 5/6/2
f 5/6/3 6/5/3 8/7/3 7/8/3
f 7/8/4 8/7/4 10/9/4 9/10/4
f 9/10/5 10/9/5 12/11/5 11/12/5
f 11/12/6 12/11/6 14/13/6 13/14/6
f 13/14/7 14/13/7 16/15/7 15/16/7
f 15/16/8 16/15/8 18/17/8 17/18/8
f 17/18/9 18/17/9 20/19/9 19/20/9
f 19/20/10 20/19/10 22/21/10 21/22/10
f 21/22/11 22/21/11 24/23/11 23/24/11
f 23/24/12 24/23/12 26/25/12 25/26/12
f 25/26/13 26/25/13 28/27/13 27/28/13
f 27/28/14 28/27/14 30/29/14 29/30/14
f 29/30/15 30/29/15 32/31/15 31/32/15
f 31/32/16 32/31/16 34/33/16 33/34/16
f 33/34/17 34/33/17 36/35/17 35/36/17
f 35/36/18 36/35/18 38/37/18 37/38/18
f 37/38/19 38/37/19 40/39/19 39/40/19
f 39/40/20 40/39/20 42/41/20 41/42/20
f 41/42/21 42/41/21 44/43/21 43/44/21
f 43/44/22 44/43/22 46/45/22 45/46/22
f 45/46/23 46/45/23 48/47/23 47/48/23
f 47/48/24 48/47/24 50/49/24 49/50/24
f 49/50/25 50/49/25 52/51/25 51/52/25
f 51/52/26 52/51/26 54/53/26 53/54/26
f 53/54/27 54/53/27 56/55/27 55/56/27
f 55/56/28 56/55/28 58/57/28 57/58/28
f 57/58/29 58/57/29 60/59/29 59/60/29
f 59/60/30 60/59/30 62/61/30 61/62/30
f 4/63/31 2/64/31 87/65/31 89/66/31 101/67/31 81/68/31 85/69/31 71/70/31 69/71/31 77/72/31 73/73/31 79/74/31 67/75/31 65/76/31 75/77/31 103/78/31 105/79/31 98/80/31 96/81/31 34/82/31 32/83/31 30/84/31 28/85/31 26/86/31 24/87/31 22/88/31 20/89/31 18/90/31 16/91/31 14/92/31 12/93/31 10/94/31 8/95/31 6/96/31
f 61/62/32 62/61/32 64/97/32 63/98/32
f 63/98/33 64/97/33 2/99/33 1/100/33
f 1/101/34 88/102/34 108/103/34 92/104/34 118/105/34 126/106/34 128/107/34 116/108/34 110/109/34 114/110/34 112/111/34 120/112/34 122/113/34 124/114/34 94/115/34 84/116/34 99/117/34 95/118/34 33/119/34 35/120/34 37/121/34 39/122/34 41/123/34 43/124/34 45/125/34 47/126/34 49/127/34 51/128/34 53/129/34 55/130/34 57/131/34 59/132/34 61/133/34 63/134/34
f 80/135/25 79/136/25 73/137/25 74/138/25
f 76/139/28 75/140/28 65/141/28 66/142/28
f 66/142/27 65/141/27 67/143/27 68/144/27
f 110/145/9 109/146/9 113/147/9 114/148/9
f 78/149/23 77/150/23 69/151/23 70/152/23
f 74/138/24 73/137/24 77/150/24 78/149/24
f 72/153/21 71/154/21 85/155/21 86/156/21
f 88/157/16 87/158/16 107/159/16 108/160/16
f 99/161/1 100/162/1 96/163/1 95/164/1
f 128/165/11 127/166/11 115/167/11 116/168/11
f 95/164/33 96/163/33 98/169/33 97/170/33
f 108/160/15 107/159/15 91/171/15 92/172/15
f 86/156/20 85/155/20 81/173/20 82/174/20
f 94/175/3 93/176/3 83/177/3 84/178/3
f 34/82/31 96/81/31 100/179/31 83/180/31 93/181/31 123/182/31 121/183/31 119/184/31 111/185/31 113/186/31 109/187/31 115/188/31 127/189/31 125/190/31 117/191/31 91/192/31 107/193/31 87/65/31 2/64/31 64/194/31 62/195/31 60/196/31 58/197/31 56/198/31 54/199/31 52/200/31 50/201/31 48/202/31 46/203/31 44/204/31 42/205/31 40/206/31 38/207/31 36/208/31
f 82/174/19 81/173/19 101/209/19 102/210/19
f 104/211/29 103/212/29 75/140/29 76/139/29
f 118/213/13 117/214/13 125/215/13 126/216/13
f 116/168/10 115/167/10 109/146/10 110/145/10
f 124/217/4 123/218/4 93/176/4 94/175/4
f 106/219/30 105/220/30 103/212/30 104/211/30
f 120/221/6 119/222/6 121/223/6 122/224/6
f 90/225/17 89/226/17 87/227/17 88/228/17
f 70/152/22 69/151/22 71/154/22 72/153/22
f 114/148/8 113/147/8 111/229/8 112/230/8
f 68/144/26 67/143/26 79/136/26 80/135/26
f 84/178/2 83/177/2 100/162/2 99/161/2
f 92/172/14 91/171/14 117/214/14 118/213/14
f 102/210/18 101/209/18 89/226/18 90/225/18
f 97/170/32 98/169/32 105/220/32 106/219/32
f 112/230/7 111/229/7 119/222/7 120/221/7
f 126/216/12 125/215/12 127/166/12 128/165/12
f 122/224/5 121/223/5 123/218/5 124/217/5
f 33/119/34 95/118/34 97/231/34 106/232/34 104/233/34 76/234/34 66/235/34 68/236/34 80/237/34 74/238/34 78/239/34 70/240/34 72/241/34 86/242/34 82/243/34 102/244/34 90/245/34 88/102/34 1/101/34 3/246/34 5/247/34 7/248/34 9/249/34 11/250/34 13/251/34 15/252/34 17/253/34 19/254/34 21/255/34 23/256/34 25/257/34 27/258/34 29/259/34 31/260/34
